<svg xmlns="http://www.w3.org/2000/svg" viewBox="0 0 32 32">
  <rect width="32" height="32" rx="7" fill="#14111A"/>
  <g fill="none" stroke="#C9A227" stroke-width="1.6" stroke-linecap="round" stroke-linejoin="round">
    <!-- máscara sonriente -->
    <path d="M6.5 10.5c0-1.8 1.9-3 4.6-3s4.6 1.2 4.6 3c0 3.6-1.9 7-4.6 7s-4.6-3.4-4.6-7Z"/>
    <path d="M8.6 9.6h.01"/>
    <path d="M13.2 9.6h.01"/>
    <path d="M9 12.4c.7.9 3 .9 3.7 0"/>
    <!-- máscara triste -->
    <path d="M16.3 15.5c0-1.8 1.9-3 4.6-3s4.6 1.2 4.6 3c0 3.6-1.9 7-4.6 7s-4.6-3.4-4.6-7Z"/>
    <path d="M18.4 14.6h.01"/>
    <path d="M23 14.6h.01"/>
    <path d="M19 18c.7-.9 3-.9 3.7 0"/>
  </g>
</svg>
